# xmcd CD database file
#
# Track frame offsets:
#	150
#	10715
#	28440
#	45100
#	64662
#	83200
#	104855
#	122967
#	140677
#	157872
#	177732
#	201557
#	237642
#
# Disc length: 3498 seconds
#
# Revision: 4
# Processed by: cddbd v1.5.1PL2 Copyright (c) Steve Scherf et al.
# Submitted via: CDex 1.51
#
DISCID=bf0da80d
DTITLE=Loudness - Best Songs Collection [CD1]
DYEAR=1995
DGENRE=Hard Rock
TTITLE0=Anthem (loudness overture)
TTITLE1=Burning love
TTITLE2=In the mirror
TTITLE3=Milky way
TTITLE4=Crazy night
TTITLE5=Angel dust
TTITLE6=Geraldine
TTITLE7=ジャガーの牙〜Tusk of jaguar〜
TTITLE8=Like hell
TTITLE9=Bad news
TTITLE10=Street woman
TTITLE11=Sleepless night (live)
TTITLE12=Ares' lament (english version)
EXTD=YEAR: 1995
EXTT0=
EXTT1=
EXTT2=
EXTT3=
EXTT4=
EXTT5=
EXTT6=
EXTT7=
EXTT8=
EXTT9=
EXTT10=
EXTT11=
EXTT12=
PLAYORDER=
